HIERARCHY
ROOT hip
{
  OFFSET 0 0 0
  CHANNELS 6 Xposition Yposition Zposition Zrotation Yrotation Xrotation
  JOINT abdomen
  {
    OFFSET 0 20.6881 -0.73152
    CHANNELS 3 Zrotation Xrotation Yrotation
    JOINT chest
    {
      OFFSET 0 11.7043 -0.48768
      CHANNELS 3 Zrotation Xrotation Yrotation
      JOINT neck
      {
        OFFSET 0 22.1894 -2.19456
        CHANNELS 3 Zrotation Xrotation Yrotation
        JOINT head
        {
          OFFSET -0.24384 7.07133 1.2192
          CHANNELS 3 Zrotation Xrotation Yrotation
          JOINT leftEye
          {
            OFFSET 4.14528 8.04674 8.04672
            CHANNELS 3 Zrotation Xrotation Yrotation
            End Site
            {
              OFFSET 1 0 0
            }
          }
          JOINT rightEye
          {
            OFFSET -3.6576 8.04674 8.04672
            CHANNELS 3 Zrotation Xrotation Yrotation
            End Site
            {
              OFFSET 1 0 0
            }
          }
        }
      }
      JOINT rCollar
      {
        OFFSET -2.68224 19.2634 -4.8768
        CHANNELS 3 Zrotation Xrotation Yrotation
        JOINT rShldr
        {
          OFFSET -8.77824 -1.95073 1.46304
          CHANNELS 3 Zrotation Xrotation Yrotation
          JOINT rForeArm
          {
            OFFSET -28.1742 -1.7115 0.48768
            CHANNELS 3 Zrotation Xrotation Yrotation
            JOINT rHand
            {
              OFFSET -22.5879 0.773209 7.07136
              CHANNELS 3 Zrotation Xrotation Yrotation
              JOINT rThumb1
              {
                OFFSET -1.2192 -0.487915 3.41376
                CHANNELS 3 Zrotation Xrotation Yrotation
                JOINT rThumb2
                {
                  OFFSET -3.37035 -0.52449 3.41376
                  CHANNELS 3 Zrotation Xrotation Yrotation
                  End Site
                  {
                    OFFSET -1.78271 -1.18214 1.43049
                  }
                }
              }
              JOINT rIndex1
              {
                OFFSET -7.75947 0.938293 5.60832
                CHANNELS 3 Zrotation Xrotation Yrotation
                JOINT rIndex2
                {
                  OFFSET -2.54057 -0.884171 1.56538
                  CHANNELS 3 Zrotation Xrotation Yrotation
                  End Site
                  {
                    OFFSET -1.62519 -0.234802 1.16502
                  }
                }
              }
              JOINT rMid1
              {
                OFFSET -8.24714 1.18213 3.41376
                CHANNELS 3 Zrotation Xrotation Yrotation
                JOINT rMid2
                {
                  OFFSET -3.10165 -0.590103 1.0647
                  CHANNELS 3 Zrotation Xrotation Yrotation
                  End Site
                  {
                    OFFSET -2.48547 -0.328903 0.83742
                  }
                }
              }
              JOINT rRing1
              {
                OFFSET -8.82822 0.546677 1.51678
                CHANNELS 3 Zrotation Xrotation Yrotation
                JOINT rRing2
                {
                  OFFSET -2.60934 -0.819778 -0.0198488
                  CHANNELS 3 Zrotation Xrotation Yrotation
                  End Site
                  {
                    OFFSET -2.33842 -0.294052 0.168128
                  }
                }
              }
              JOINT rPinky1
              {
                OFFSET -8.27202 -0.0477905 -0.4584
                CHANNELS 3 Zrotation Xrotation Yrotation
                JOINT rPinky2
                {
                  OFFSET -1.82734 -0.647385 -0.700984
                  CHANNELS 3 Zrotation Xrotation Yrotation
                  End Site
                  {
                    OFFSET -1.69225 -0.51767 -0.607171
                  }
                }
              }
            }
          }
        }
      }
      JOINT lCollar
      {
        OFFSET 2.68224 19.2634 -4.8768
        CHANNELS 3 Zrotation Xrotation Yrotation
        JOINT lShldr
        {
          OFFSET 8.77824 -1.95073 1.46304
          CHANNELS 3 Zrotation Xrotation Yrotation
          JOINT lForeArm
          {
            OFFSET 28.1742 -1.7115 0.48768
            CHANNELS 3 Zrotation Xrotation Yrotation
            JOINT lHand
            {
              OFFSET 22.5879 0.773209 7.07136
              CHANNELS 3 Zrotation Xrotation Yrotation
              JOINT lThumb1
              {
                OFFSET 1.2192 -0.487915 3.41376
                CHANNELS 3 Zrotation Xrotation Yrotation
                JOINT lThumb2
                {
                  OFFSET 3.37035 -0.52449 3.41376
                  CHANNELS 3 Zrotation Xrotation Yrotation
                  End Site
                  {
                    OFFSET 1.78271 -1.18214 1.43049
                  }
                }
              }
              JOINT lIndex1
              {
                OFFSET 7.75947 0.938293 5.60832
                CHANNELS 3 Zrotation Xrotation Yrotation
                JOINT lIndex2
                {
                  OFFSET 2.54057 -0.884171 1.56538
                  CHANNELS 3 Zrotation Xrotation Yrotation
                  End Site
                  {
                    OFFSET 1.62519 -0.234802 1.16502
                  }
                }
              }
              JOINT lMid1
              {
                OFFSET 8.24714 1.18213 3.41376
                CHANNELS 3 Zrotation Xrotation Yrotation
                JOINT lMid2
                {
                  OFFSET 3.10165 -0.590103 1.0647
                  CHANNELS 3 Zrotation Xrotation Yrotation
                  End Site
                  {
                    OFFSET 2.48547 -0.328903 0.83742
                  }
                }
              }
              JOINT lRing1
              {
                OFFSET 8.82822 0.546677 1.51678
                CHANNELS 3 Zrotation Xrotation Yrotation
                JOINT lRing2
                {
                  OFFSET 2.60934 -0.819778 -0.0198488
                  CHANNELS 3 Zrotation Xrotation Yrotation
                  End Site
                  {
                    OFFSET 2.33842 -0.294052 0.168128
                  }
                }
              }
              JOINT lPinky1
              {
                OFFSET 8.27202 -0.0477905 -0.4584
                CHANNELS 3 Zrotation Xrotation Yrotation
                JOINT lPinky2
                {
                  OFFSET 1.82734 -0.647385 -0.700984
                  CHANNELS 3 Zrotation Xrotation Yrotation
                  End Site
                  {
                    OFFSET 1.69225 -0.51767 -0.607171
                  }
                }
              }
            }
          }
        }
      }
    }
  }
  JOINT rButtock
  {
    OFFSET -8.77824 4.35084 1.2192
    CHANNELS 3 Zrotation Xrotation Yrotation
    JOINT rThigh
    {
      OFFSET 0 -1.70687 -2.19456
      CHANNELS 3 Zrotation Xrotation Yrotation
      JOINT rShin
      {
        OFFSET 0 -36.8199 0.73152
        CHANNELS 3 Zrotation Xrotation Yrotation
        JOINT rFoot
        {
          OFFSET 0.73152 -45.1104 -5.12064
          CHANNELS 3 Zrotation Xrotation Yrotation
          End Site
          {
            OFFSET -1.1221 -3.69964 12.103
          }
        }
      }
    }
  }
  JOINT lButtock
  {
    OFFSET 8.77824 4.35084 1.2192
    CHANNELS 3 Zrotation Xrotation Yrotation
    JOINT lThigh
    {
      OFFSET 0 -1.70687 -2.19456
      CHANNELS 3 Zrotation Xrotation Yrotation
      JOINT lShin
      {
        OFFSET 0 -36.8199 0.73152
        CHANNELS 3 Zrotation Xrotation Yrotation
        JOINT lFoot
        {
          OFFSET -0.73152 -45.1104 -5.12064
          CHANNELS 3 Zrotation Xrotation Yrotation
          End Site
          {
            OFFSET 1.1221 -3.69964 12.103
          }
        }
      }
    }
  }
}
MOTION
Frames: 7
Frame Time:	0.06666666
-14.7371 81.3256 9.56676 4.1177 32.1748 3.3544 -3.38331 6.44069 -1.32723 3.04048 -3.01967 -0.41525 -8.64703 1.52597 -2.65786 4.89645 2.21046 -2.94667 -0.0 0.0 0.0 -0.0 0.0 0.0 1.24063e-13 -9.00301e-14 2.59609e-13 80.1504 7.52444 -3.42173 -14.5604 -7.41604 26.6876 -0.0443341 6.00479 0.847041 -5.03256e-09 4.37402e-09 1.33948e-09 -8.69796e-09 7.53412e-09 2.35745e-09 -5.03255e-09 4.37401e-09 1.33949e-09 7.73091 5.47488 0.417314 -5.03256e-09 4.37402e-09 1.3395e-09 2.90554 0.965183 0.102902 -5.03255e-09 4.37401e-09 1.3395e-09 10.2786 0.731801 0.0259123 -5.03257e-09 4.37402e-09 1.3395e-09 2.22167 -0.733487 -0.20892 1.23898e-13 -9.00322e-14 2.59377e-13 -81.5332 19.8145 -2.90537 12.5283 -5.82767 -22.6342 0.116744 9.7348 -1.38145 -5.2636e-09 -7.721e-09 1.42275e-09 -9.08307e-09 -1.3373e-08 2.51692e-09 -5.26359e-09 -7.721e-09 1.42275e-09 -7.73091 5.47488 -0.417314 -5.26359e-09 -7.721e-09 1.42275e-09 -2.90554 0.965183 -0.102902 -5.2636e-09 -7.721e-09 1.42275e-09 -10.2786 0.731801 -0.0259123 -5.26359e-09 -7.721e-09 1.42274e-09 -2.22167 -0.733487 0.20892 -2.03217e-16 0.0 -3.88251e-19 -7.45976 -34.9367 -3.39155 -1.17126 61.313 1.56094 -1.43006 -2.43555 -6.12751 2.03217e-16 0.0 3.88251e-19 -12.0482 -16.2826 1.56336 0.129448 30.4855 -0.482981 0.140593 -12.3875 -1.95523
-13.865 81.125 10.9095 4.4863 32.6736 3.8712 -3.59338 6.17909 -1.67393 3.41772 -2.98719 -0.487693 -8.93267 1.30362 -2.6726 5.35691 2.22566 -2.88507 -0.0 0.0 0.0 -0.0 0.0 0.0 8.95448e-14 -1.1867e-13 -2.67963e-13 80.1143 7.40538 -3.35678 -14.3089 -7.20681 26.1769 -0.051508 6.46946 0.913135 1.27148e-09 -5.469e-10 -9.28612e-10 2.19317e-09 -9.33379e-10 -1.61871e-09 1.27148e-09 -5.46895e-10 -9.28611e-10 7.73091 5.47488 0.417314 1.27148e-09 -5.46896e-10 -9.28603e-10 2.90554 0.965183 0.102902 1.27148e-09 -5.46896e-10 -9.28605e-10 10.2786 0.731801 0.0259123 1.27147e-09 -5.46893e-10 -9.286e-10 2.22167 -0.733487 -0.20892 8.94565e-14 -1.18667e-13 -2.68164e-13 -80.9413 21.5879 -3.70103 13.0448 -6.21048 -23.6484 0.0830658 8.24663 -1.16697 1.51847e-09 2.32868e-09 -5.04356e-10 2.62491e-09 4.0293e-09 -8.8016e-10 1.51846e-09 2.32868e-09 -5.04348e-10 -7.73091 5.47488 -0.417314 1.51847e-09 2.32868e-09 -5.0435e-10 -2.90554 0.965183 -0.102902 1.51847e-09 2.32868e-09 -5.04356e-10 -10.2786 0.731801 -0.0259123 1.51847e-09 2.32868e-09 -5.04363e-10 -2.22167 -0.733487 0.20892 -2.03217e-16 0.0 -3.88251e-19 -7.32465 -36.3815 -2.84342 -0.958281 57.9601 1.35382 -1.49536 -2.99821 -6.19563 2.03217e-16 0.0 3.88251e-19 -12.2123 -15.3126 1.50877 0.123439 30.2914 -0.538286 0.122908 -13.3317 -1.90821
-12.9846 81.1503 12.3413 4.5725 33.0309 4.0909 -3.72722 6.06481 -2.13678 3.78962 -2.98041 -0.594753 -9.14351 1.07198 -2.71447 5.64102 2.202 -2.88913 -0.0 0.0 0.0 -0.0 0.0 0.0 9.4613e-14 -1.32039e-13 -7.50288e-13 80.0883 7.2733 -3.27025 -14.1008 -7.03588 25.7574 -0.056396 6.75692 0.954102 5.09806e-09 -3.43016e-09 -2.5707e-09 8.80232e-09 -5.89307e-09 -4.49183e-09 5.09806e-09 -3.43016e-09 -2.57071e-09 7.73091 5.47488 0.417314 5.09805e-09 -3.43016e-09 -2.5707e-09 2.90554 0.965183 0.102902 5.09806e-09 -3.43016e-09 -2.5707e-09 10.2786 0.731801 0.0259123 5.09805e-09 -3.43016e-09 -2.5707e-09 2.22167 -0.733487 -0.20892 9.45643e-14 -1.32035e-13 -7.50507e-13 -80.4296 22.5851 -4.46831 13.4416 -6.51146 -24.4392 0.0702407 7.50289 -1.0607 5.54887e-09 9.05122e-09 -1.95901e-09 9.58061e-09 1.56674e-08 -3.43299e-09 5.54886e-09 9.05122e-09 -1.959e-09 -7.73091 5.47488 -0.417314 5.54887e-09 9.05122e-09 -1.959e-09 -2.90554 0.965183 -0.102902 5.54887e-09 9.05122e-09 -1.959e-09 -10.2786 0.731801 -0.0259123 5.54887e-09 9.05123e-09 -1.95901e-09 -2.22167 -0.733487 0.20892 -2.03217e-16 0.0 -3.88251e-19 -7.11842 -37.1243 -2.16956 -0.748084 53.6884 1.13835 -1.55363 -3.2687 -6.48366 2.03217e-16 0.0 3.88251e-19 -12.3114 -13.7913 1.22753 0.113164 29.5298 -0.569518 0.0250746 -13.8901 -2.16551
-12.018 81.3481 13.7892 4.9836 33.497 4.3756 -3.78194 6.09744 -2.71606 4.15604 -2.99933 -0.736436 -9.27993 0.831069 -2.78347 5.74869 2.13946 -2.95886 -0.0 0.0 0.0 -0.0 0.0 0.0 1.39268e-13 -1.30136e-13 -1.18737e-12 80.0725 7.12816 -3.16217 -13.9378 -6.90443 25.429 -0.0582338 6.86716 0.969816 6.44716e-09 -4.27577e-09 -3.58679e-09 1.11295e-08 -7.34496e-09 -6.26191e-09 6.44717e-09 -4.27577e-09 -3.5868e-09 7.73091 5.47488 0.417314 6.44716e-09 -4.27577e-09 -3.58679e-09 2.90554 0.965183 0.102902 6.44717e-09 -4.27577e-09 -3.58679e-09 10.2786 0.731801 0.0259123 6.44716e-09 -4.27577e-09 -3.58679e-09 2.22167 -0.733487 -0.20892 1.39222e-13 -1.30135e-13 -1.18765e-12 -80.0335 22.8083 -5.19194 13.7259 -6.73472 -25.0054 0.0698503 7.50385 -1.06077 6.82761e-09 1.24466e-08 -2.9412e-09 1.1784e-08 2.15415e-08 -5.14157e-09 6.82761e-09 1.24466e-08 -2.94119e-09 -7.73091 5.47488 -0.417314 6.82761e-09 1.24466e-08 -2.9412e-09 -2.90554 0.965183 -0.102902 6.8276e-09 1.24466e-08 -2.9412e-09 -10.2786 0.731801 -0.0259123 6.82762e-09 1.24466e-08 -2.9412e-09 -2.22167 -0.733487 0.20892 -2.03217e-16 0.0 -3.88251e-19 -6.86603 -37.1624 -1.38327 -0.55956 48.4979 0.931046 -1.60358 -3.24695 -6.99106 2.03217e-16 0.0 3.88251e-19 -12.3188 -11.7177 0.726603 0.0986548 28.2008 -0.57692 -0.156742 -14.0616 -2.72766
-11.1175 81.6526 15.1249 5.0788 34.1767 4.721 -3.7965 6.0006 -3.16175 4.45223 -3.04206 -0.841056 -9.16463 0.753158 -2.79271 5.72587 1.97389 -2.99298 -0.0 0.0 0.0 -0.0 0.0 0.0 1.43092e-13 -1.49672e-13 -1.19355e-12 80.2562 6.76047 -3.33057 -13.8165 -6.80719 25.186 -0.0616917 7.07194 0.999019 5.975e-09 -4.30893e-09 -3.00498e-09 1.03165e-08 -7.40799e-09 -5.25234e-09 5.97501e-09 -4.30893e-09 -3.005e-09 7.73091 5.47488 0.417314 5.975e-09 -4.30893e-09 -3.00499e-09 2.90554 0.965183 0.102902 5.97501e-09 -4.30893e-09 -3.00499e-09 10.2786 0.731801 0.0259123 5.975e-09 -4.30893e-09 -3.00499e-09 2.22167 -0.733487 -0.20892 1.43011e-13 -1.49673e-13 -1.19383e-12 -79.5043 23.2681 -5.75776 14.0386 -6.98586 -25.6313 0.0658815 7.30513 -1.03232 6.23593e-09 1.13876e-08 -3.17862e-09 1.07591e-08 1.97061e-08 -5.54633e-09 6.23593e-09 1.13876e-08 -3.17861e-09 -7.73091 5.47488 -0.417314 6.23593e-09 1.13876e-08 -3.17862e-09 -2.90554 0.965183 -0.102902 6.23592e-09 1.13876e-08 -3.17862e-09 -10.2786 0.731801 -0.0259123 6.23593e-09 1.13876e-08 -3.17862e-09 -2.22167 -0.733487 0.20892 -2.03217e-16 0.0 -3.88251e-19 -6.63428 -37.1053 -0.911586 -0.414022 43.1876 0.745846 -1.51941 -2.519 -7.21198 2.03217e-16 0.0 3.88251e-19 -12.2359 -9.88171 0.357734 0.0888951 26.8983 -0.568498 -0.315128 -14.3135 -3.16186
-10.2609 81.7632 16.495 5.3561 34.4901 5.1551 -3.77327 5.77473 -3.47364 4.67815 -3.10862 -0.908616 -8.79732 0.83823 -2.74216 5.5727 1.70529 -2.99154 -0.0 0.0 0.0 -0.0 0.0 0.0 1.06083e-13 -1.90646e-13 -7.68853e-13 80.6321 6.17037 -3.77485 -13.7378 -6.74476 25.0283 -0.0670616 7.37124 1.04177 3.68157e-09 -3.52964e-09 -8.25287e-10 6.36325e-09 -6.08216e-09 -1.46311e-09 3.68157e-09 -3.52964e-09 -8.25282e-10 7.73091 5.47488 0.417314 3.68156e-09 -3.52964e-09 -8.25283e-10 2.90554 0.965183 0.102902 3.68157e-09 -3.52964e-09 -8.25286e-10 10.2786 0.731801 0.0259123 3.68156e-09 -3.52964e-09 -8.2528e-10 2.22167 -0.733487 -0.20892 1.05931e-13 -1.90649e-13 -7.69035e-13 -78.8387 23.9657 -6.16781 14.3779 -7.26363 -26.3173 0.0589329 6.9067 -0.975456 3.77382e-09 5.87411e-09 -2.67127e-09 6.50601e-09 1.01614e-08 -4.64727e-09 3.77381e-09 5.87411e-09 -2.67125e-09 -7.73091 5.47488 -0.417314 3.77382e-09 5.87411e-09 -2.67127e-09 -2.90554 0.965183 -0.102902 3.77381e-09 5.87411e-09 -2.67127e-09 -10.2786 0.731801 -0.0259123 3.77382e-09 5.87411e-09 -2.67128e-09 -2.22167 -0.733487 0.20892 -2.03217e-16 0.0 -3.88251e-19 -6.42482 -36.9566 -0.755537 -0.306833 37.7576 0.57508 -1.30377 -1.08472 -7.14991 2.03217e-16 0.0 3.88251e-19 -12.0801 -8.28422 0.116252 0.0850765 25.6222 -0.54477 -0.450215 -14.6464 -3.46824
-9.42453 81.8267 17.9086 5.1542 34.6317 5.2957 -3.72544 5.62473 -3.67068 4.91001 -3.11346 -0.948448 -8.66576 0.893942 -2.73593 5.61919 1.52529 -3.01667 -0.0 0.0 0.0 -0.0 0.0 0.0 2.74716e-14 -1.38953e-13 -2.09856e-13 80.8995 5.6996 -4.05436 -13.6564 -6.6805 24.8653 -0.0697794 7.5139 1.06217 1.19162e-09 -1.87157e-09 8.7583e-10 2.06721e-09 -3.23465e-09 1.50259e-09 1.19162e-09 -1.87157e-09 8.75839e-10 7.73091 5.47488 0.417314 1.19161e-09 -1.87157e-09 8.75839e-10 2.90554 0.965183 0.102902 1.19162e-09 -1.87157e-09 8.75833e-10 10.2786 0.731801 0.0259123 1.19162e-09 -1.87157e-09 8.7584e-10 2.22167 -0.733487 -0.20892 2.73521e-14 -1.38961e-13 -2.09993e-13 -78.2594 24.639 -6.65405 14.7109 -7.54286 -26.9949 0.0493221 6.34073 -0.894798 1.17533e-09 7.54109e-10 -1.42354e-09 2.02149e-09 1.30128e-09 -2.4699e-09 1.17533e-09 7.54112e-10 -1.42353e-09 -7.73091 5.47488 -0.417314 1.17533e-09 7.5411e-10 -1.42354e-09 -2.90554 0.965183 -0.102902 1.17533e-09 7.54111e-10 -1.42354e-09 -10.2786 0.731801 -0.0259123 1.17534e-09 7.54115e-10 -1.42355e-09 -2.22167 -0.733487 0.20892 -2.03217e-16 0.0 -3.88251e-19 -6.01012 -36.5885 -0.343583 -0.22132 32.236 0.416407 -1.14879 -0.171694 -7.02441 2.03217e-16 0.0 3.88251e-19 -11.8292 -6.67071 0.403801 0.0832064 24.3141 -0.504286 -0.531914 -14.7744 -3.61594
